<mxfile host="781ed4ab-1e4f-4e75-90cf-5fb01749d905" modified="2020-08-02T20:10:41.866Z" agent="5.0 (Windows NT 10.0; Win64; x64) AppleWebKit/537.36 (KHTML, like Gecko) Code/1.47.3 Chrome/78.0.3904.130 Electron/7.3.2 Safari/537.36" etag="3CYDh3rl0vpyD1SO3HrS" version="13.1.3" pages="5">
    <diagram id="ON40oY-O6tRvZlFbGFwZ" name="Block diagram">
        <mxGraphModel dx="407" dy="472" grid="1" gridSize="10" guides="1" tooltips="1" connect="1" arrows="1" fold="1" page="1" pageScale="1" pageWidth="827" pageHeight="1169" math="0" shadow="0">
            <root>
                <mxCell id="0"/>
                <mxCell id="1" parent="0"/>
                <mxCell id="lYU6WvVLotIQowFq7WDK-3" value="3GPI" style="edgeStyle=orthogonalEdgeStyle;rounded=0;orthogonalLoop=1;jettySize=auto;html=1;entryX=0;entryY=0.75;entryDx=0;entryDy=0;exitX=1;exitY=0.75;exitDx=0;exitDy=0;" parent="1" source="lYU6WvVLotIQowFq7WDK-1" target="lYU6WvVLotIQowFq7WDK-2" edge="1">
                    <mxGeometry y="-15" relative="1" as="geometry">
                        <mxPoint as="offset"/>
                    </mxGeometry>
                </mxCell>
                <mxCell id="lYU6WvVLotIQowFq7WDK-7" value="I2C" style="edgeStyle=orthogonalEdgeStyle;rounded=0;orthogonalLoop=1;jettySize=auto;html=1;" parent="1" source="lYU6WvVLotIQowFq7WDK-1" target="lYU6WvVLotIQowFq7WDK-6" edge="1">
                    <mxGeometry y="-20" relative="1" as="geometry">
                        <mxPoint as="offset"/>
                    </mxGeometry>
                </mxCell>
                <mxCell id="lYU6WvVLotIQowFq7WDK-9" value="SPI" style="edgeStyle=orthogonalEdgeStyle;rounded=0;orthogonalLoop=1;jettySize=auto;html=1;exitX=0.25;exitY=1;exitDx=0;exitDy=0;entryX=0.5;entryY=0;entryDx=0;entryDy=0;" parent="1" source="lYU6WvVLotIQowFq7WDK-1" target="lYU6WvVLotIQowFq7WDK-8" edge="1">
                    <mxGeometry x="-0.12" y="-10" relative="1" as="geometry">
                        <mxPoint as="offset"/>
                    </mxGeometry>
                </mxCell>
                <mxCell id="lYU6WvVLotIQowFq7WDK-11" value="GPI" style="edgeStyle=orthogonalEdgeStyle;rounded=0;orthogonalLoop=1;jettySize=auto;html=1;entryX=0;entryY=0.5;entryDx=0;entryDy=0;exitX=1;exitY=0.5;exitDx=0;exitDy=0;" parent="1" source="lYU6WvVLotIQowFq7WDK-10" target="lYU6WvVLotIQowFq7WDK-1" edge="1">
                    <mxGeometry y="10" relative="1" as="geometry">
                        <mxPoint x="70" y="220" as="sourcePoint"/>
                        <mxPoint as="offset"/>
                    </mxGeometry>
                </mxCell>
                <mxCell id="lYU6WvVLotIQowFq7WDK-1" value="ESP32 with WiFi&lt;br&gt;TTGO-T" style="rounded=1;whiteSpace=wrap;html=1;fillColor=#d5e8d4;strokeColor=#82b366;strokeWidth=4;" parent="1" vertex="1">
                    <mxGeometry x="260" y="200" width="120" height="60" as="geometry"/>
                </mxCell>
                <mxCell id="lYU6WvVLotIQowFq7WDK-13" value="GPI (or I2C?)" style="edgeStyle=orthogonalEdgeStyle;rounded=0;orthogonalLoop=1;jettySize=auto;html=1;exitX=0.5;exitY=1;exitDx=0;exitDy=0;entryX=0.25;entryY=0;entryDx=0;entryDy=0;" parent="1" source="lYU6WvVLotIQowFq7WDK-12" target="lYU6WvVLotIQowFq7WDK-1" edge="1">
                    <mxGeometry x="0.12" y="10" relative="1" as="geometry">
                        <mxPoint x="250" y="150" as="targetPoint"/>
                        <mxPoint as="offset"/>
                    </mxGeometry>
                </mxCell>
                <mxCell id="lYU6WvVLotIQowFq7WDK-10" value="WPS Pushbutton&lt;br&gt;TTGO-T" style="rounded=1;whiteSpace=wrap;html=1;fillColor=#dae8fc;strokeColor=#6c8ebf;strokeWidth=4;" parent="1" vertex="1">
                    <mxGeometry x="60" y="200" width="120" height="60" as="geometry"/>
                </mxCell>
                <mxCell id="lYU6WvVLotIQowFq7WDK-12" value="Joystick and &lt;br&gt;buttons" style="rounded=1;whiteSpace=wrap;html=1;fillColor=#dae8fc;strokeColor=#6c8ebf;dashed=1;" parent="1" vertex="1">
                    <mxGeometry x="60" y="60" width="120" height="60" as="geometry"/>
                </mxCell>
                <mxCell id="lYU6WvVLotIQowFq7WDK-8" value="OLED Display&lt;br&gt;TTGO-T" style="rounded=1;whiteSpace=wrap;html=1;fillColor=#fff2cc;strokeColor=#d6b656;strokeWidth=4;" parent="1" vertex="1">
                    <mxGeometry x="60" y="340" width="120" height="60" as="geometry"/>
                </mxCell>
                <mxCell id="lYU6WvVLotIQowFq7WDK-6" value="RTC&lt;br&gt;DS3231" style="rounded=1;whiteSpace=wrap;html=1;fillColor=#fff2cc;strokeColor=#d6b656;strokeWidth=2;" parent="1" vertex="1">
                    <mxGeometry x="260" y="60" width="120" height="60" as="geometry"/>
                </mxCell>
                <mxCell id="lYU6WvVLotIQowFq7WDK-5" value="Bi-phase&lt;br&gt;24V pulses" style="edgeStyle=orthogonalEdgeStyle;rounded=0;orthogonalLoop=1;jettySize=auto;html=1;" parent="1" source="lYU6WvVLotIQowFq7WDK-2" target="lYU6WvVLotIQowFq7WDK-4" edge="1">
                    <mxGeometry y="40" relative="1" as="geometry">
                        <Array as="points">
                            <mxPoint x="520" y="280"/>
                            <mxPoint x="520" y="280"/>
                        </Array>
                        <mxPoint as="offset"/>
                    </mxGeometry>
                </mxCell>
                <mxCell id="lYU6WvVLotIQowFq7WDK-16" value="5V" style="edgeStyle=orthogonalEdgeStyle;rounded=0;orthogonalLoop=1;jettySize=auto;html=1;exitX=0.25;exitY=1;exitDx=0;exitDy=0;entryX=1;entryY=0.25;entryDx=0;entryDy=0;" parent="1" source="lYU6WvVLotIQowFq7WDK-14" target="lYU6WvVLotIQowFq7WDK-1" edge="1">
                    <mxGeometry x="-0.4146" y="-20" relative="1" as="geometry">
                        <mxPoint as="offset"/>
                        <Array as="points">
                            <mxPoint x="490" y="160"/>
                            <mxPoint x="420" y="160"/>
                            <mxPoint x="420" y="215"/>
                        </Array>
                    </mxGeometry>
                </mxCell>
                <mxCell id="lYU6WvVLotIQowFq7WDK-2" value="L298N Dual-H &lt;br&gt;motor driver module" style="rounded=1;whiteSpace=wrap;html=1;fillColor=#e1d5e7;strokeColor=#9673a6;strokeWidth=2;" parent="1" vertex="1">
                    <mxGeometry x="460" y="200" width="120" height="60" as="geometry"/>
                </mxCell>
                <mxCell id="lYU6WvVLotIQowFq7WDK-17" value="Position sensors" style="edgeStyle=orthogonalEdgeStyle;rounded=0;orthogonalLoop=1;jettySize=auto;html=1;entryX=0.75;entryY=1;entryDx=0;entryDy=0;exitX=0.25;exitY=0;exitDx=0;exitDy=0;" parent="1" source="lYU6WvVLotIQowFq7WDK-4" target="lYU6WvVLotIQowFq7WDK-1" edge="1">
                    <mxGeometry y="-10" relative="1" as="geometry">
                        <mxPoint as="offset"/>
                    </mxGeometry>
                </mxCell>
                <mxCell id="lYU6WvVLotIQowFq7WDK-4" value="Pulse clock" style="rounded=1;whiteSpace=wrap;html=1;fillColor=#d5e8d4;strokeColor=#82b366;" parent="1" vertex="1">
                    <mxGeometry x="460" y="340" width="120" height="60" as="geometry"/>
                </mxCell>
                <mxCell id="lYU6WvVLotIQowFq7WDK-15" style="edgeStyle=orthogonalEdgeStyle;rounded=0;orthogonalLoop=1;jettySize=auto;html=1;exitX=0.25;exitY=1;exitDx=0;exitDy=0;entryX=0.25;entryY=0;entryDx=0;entryDy=0;" parent="1" source="lYU6WvVLotIQowFq7WDK-14" target="lYU6WvVLotIQowFq7WDK-2" edge="1">
                    <mxGeometry relative="1" as="geometry"/>
                </mxCell>
                <mxCell id="th1PmWCgBohAKSmarej1-1" value="24V" style="edgeStyle=orthogonalEdgeStyle;rounded=0;orthogonalLoop=1;jettySize=auto;html=1;exitX=0.75;exitY=1;exitDx=0;exitDy=0;entryX=0.75;entryY=0;entryDx=0;entryDy=0;" parent="1" source="lYU6WvVLotIQowFq7WDK-14" target="lYU6WvVLotIQowFq7WDK-2" edge="1">
                    <mxGeometry x="-0.25" y="20" relative="1" as="geometry">
                        <mxPoint as="offset"/>
                    </mxGeometry>
                </mxCell>
                <mxCell id="lYU6WvVLotIQowFq7WDK-14" value="24V to 5V&lt;br&gt;DC-DC buck" style="rounded=1;whiteSpace=wrap;html=1;fillColor=#d5e8d4;strokeColor=#82b366;" parent="1" vertex="1">
                    <mxGeometry x="460" y="60" width="120" height="60" as="geometry"/>
                </mxCell>
                <mxCell id="lYU6WvVLotIQowFq7WDK-20" value="Alternative options" style="rounded=1;whiteSpace=wrap;html=1;fillColor=#dae8fc;strokeColor=#6c8ebf;" parent="1" vertex="1">
                    <mxGeometry x="60" y="470" width="120" height="60" as="geometry"/>
                </mxCell>
                <mxCell id="lYU6WvVLotIQowFq7WDK-21" value="Options" style="rounded=1;whiteSpace=wrap;html=1;fillColor=#fff2cc;strokeColor=#d6b656;" parent="1" vertex="1">
                    <mxGeometry x="260" y="470" width="120" height="60" as="geometry"/>
                </mxCell>
                <mxCell id="lYU6WvVLotIQowFq7WDK-22" value="Core components" style="rounded=1;whiteSpace=wrap;html=1;fillColor=#d5e8d4;strokeColor=#82b366;" parent="1" vertex="1">
                    <mxGeometry x="460" y="470" width="120" height="60" as="geometry"/>
                </mxCell>
                <mxCell id="lYU6WvVLotIQowFq7WDK-23" value="Likely choice &lt;br&gt;(other options exist)" style="rounded=1;whiteSpace=wrap;html=1;fillColor=#e1d5e7;strokeColor=#9673a6;" parent="1" vertex="1">
                    <mxGeometry x="660" y="470" width="120" height="60" as="geometry"/>
                </mxCell>
                <mxCell id="lYU6WvVLotIQowFq7WDK-24" value="&lt;font&gt;&lt;b&gt;&lt;font style=&quot;font-size: 14px&quot;&gt;Display info&lt;/font&gt;&lt;/b&gt;&lt;br&gt;&lt;br&gt;&lt;ul style=&quot;font-size: 11px&quot;&gt;&lt;li style=&quot;text-align: left&quot;&gt;&lt;font&gt;WiFi parameters&lt;/font&gt;&lt;/li&gt;&lt;li style=&quot;text-align: left&quot;&gt;Time and timezone&lt;/li&gt;&lt;li style=&quot;text-align: left&quot;&gt;Configuration&lt;/li&gt;&lt;/ul&gt;&lt;/font&gt;" style="shape=process;whiteSpace=wrap;html=1;backgroundOutline=1;" parent="1" vertex="1">
                    <mxGeometry x="220" y="599" width="200" height="120" as="geometry"/>
                </mxCell>
                <mxCell id="Cc7VTmCBbJPKLkJfdGY4-2" value="Serial" style="edgeStyle=orthogonalEdgeStyle;rounded=0;orthogonalLoop=1;jettySize=auto;html=1;exitX=0.5;exitY=0;exitDx=0;exitDy=0;entryX=0.5;entryY=1;entryDx=0;entryDy=0;" parent="1" source="Cc7VTmCBbJPKLkJfdGY4-1" target="lYU6WvVLotIQowFq7WDK-1" edge="1">
                    <mxGeometry x="-0.5" y="-20" relative="1" as="geometry">
                        <mxPoint as="offset"/>
                    </mxGeometry>
                </mxCell>
                <mxCell id="Cc7VTmCBbJPKLkJfdGY4-1" value="GPS" style="rounded=1;whiteSpace=wrap;html=1;fillColor=#fff2cc;strokeColor=#d6b656;dashed=1;" parent="1" vertex="1">
                    <mxGeometry x="260" y="340" width="120" height="60" as="geometry"/>
                </mxCell>
            </root>
        </mxGraphModel>
    </diagram>
    <diagram id="pm1R0TK3XX2hnGX7C5NQ" name="Menu structure">
        <mxGraphModel dx="407" dy="472" grid="1" gridSize="10" guides="1" tooltips="1" connect="1" arrows="1" fold="1" page="1" pageScale="1" pageWidth="827" pageHeight="1169" math="0" shadow="0">
            <root>
                <mxCell id="QDaHINVipErcBqfPzeCJ-0"/>
                <mxCell id="QDaHINVipErcBqfPzeCJ-1" parent="QDaHINVipErcBqfPzeCJ-0"/>
                <mxCell id="QDaHINVipErcBqfPzeCJ-4" value="" style="edgeStyle=orthogonalEdgeStyle;rounded=0;orthogonalLoop=1;jettySize=auto;html=1;entryX=0;entryY=0.5;entryDx=0;entryDy=0;exitX=1;exitY=0.25;exitDx=0;exitDy=0;" parent="QDaHINVipErcBqfPzeCJ-1" source="QDaHINVipErcBqfPzeCJ-2" target="QDaHINVipErcBqfPzeCJ-3" edge="1">
                    <mxGeometry relative="1" as="geometry"/>
                </mxCell>
                <mxCell id="QDaHINVipErcBqfPzeCJ-6" value="" style="edgeStyle=orthogonalEdgeStyle;rounded=0;orthogonalLoop=1;jettySize=auto;html=1;entryX=0;entryY=0.5;entryDx=0;entryDy=0;exitX=1;exitY=0.75;exitDx=0;exitDy=0;" parent="QDaHINVipErcBqfPzeCJ-1" source="QDaHINVipErcBqfPzeCJ-2" target="QDaHINVipErcBqfPzeCJ-5" edge="1">
                    <mxGeometry relative="1" as="geometry"/>
                </mxCell>
                <mxCell id="QDaHINVipErcBqfPzeCJ-2" value="&lt;div style=&quot;text-align: right&quot;&gt;&lt;span&gt;WPS&lt;/span&gt;&lt;/div&gt;IP: 192.168.16.20&lt;br&gt;&lt;div style=&quot;text-align: right&quot;&gt;&lt;span&gt;Menu&lt;/span&gt;&lt;/div&gt;" style="shape=process;whiteSpace=wrap;html=1;backgroundOutline=1;strokeWidth=2;" parent="QDaHINVipErcBqfPzeCJ-1" vertex="1">
                    <mxGeometry x="70" y="340" width="180" height="60" as="geometry"/>
                </mxCell>
                <mxCell id="QDaHINVipErcBqfPzeCJ-5" value="&lt;div style=&quot;text-align: right&quot;&gt;Reset hands&lt;/div&gt;&lt;div style=&quot;text-align: right&quot;&gt;Set clock manually&lt;/div&gt;&lt;div style=&quot;text-align: right&quot;&gt;Set WiFi manually&lt;/div&gt;" style="shape=process;whiteSpace=wrap;html=1;backgroundOutline=1;strokeWidth=2;" parent="QDaHINVipErcBqfPzeCJ-1" vertex="1">
                    <mxGeometry x="300" y="430" width="180" height="60" as="geometry"/>
                </mxCell>
                <mxCell id="QDaHINVipErcBqfPzeCJ-3" value="&lt;div style=&quot;text-align: right&quot;&gt;Status&amp;nbsp; of WPS process&lt;/div&gt;" style="shape=process;whiteSpace=wrap;html=1;backgroundOutline=1;strokeWidth=2;" parent="QDaHINVipErcBqfPzeCJ-1" vertex="1">
                    <mxGeometry x="310" y="250" width="180" height="60" as="geometry"/>
                </mxCell>
            </root>
        </mxGraphModel>
    </diagram>
    <diagram id="7insJR0W-idvyoElh4a1" name="Flowchart">
        <mxGraphModel dx="407" dy="472" grid="1" gridSize="10" guides="1" tooltips="1" connect="1" arrows="1" fold="1" page="1" pageScale="1" pageWidth="827" pageHeight="1169" math="0" shadow="0">
            <root>
                <mxCell id="Pxy_f4rOBOek3tE0ao7x-0"/>
                <mxCell id="Pxy_f4rOBOek3tE0ao7x-1" parent="Pxy_f4rOBOek3tE0ao7x-0"/>
                <mxCell id="Ek0EtLqmQEhSKvi4kruh-1" style="edgeStyle=orthogonalEdgeStyle;rounded=0;orthogonalLoop=1;jettySize=auto;html=1;exitX=0.5;exitY=1;exitDx=0;exitDy=0;exitPerimeter=0;entryX=0.5;entryY=0;entryDx=0;entryDy=0;entryPerimeter=0;" parent="Pxy_f4rOBOek3tE0ao7x-1" source="Pxy_f4rOBOek3tE0ao7x-2" target="Ek0EtLqmQEhSKvi4kruh-0" edge="1">
                    <mxGeometry relative="1" as="geometry"/>
                </mxCell>
                <mxCell id="Pxy_f4rOBOek3tE0ao7x-2" value="Power up" style="strokeWidth=2;html=1;shape=mxgraph.flowchart.terminator;whiteSpace=wrap;" parent="Pxy_f4rOBOek3tE0ao7x-1" vertex="1">
                    <mxGeometry x="430" y="50" width="100" height="60" as="geometry"/>
                </mxCell>
                <mxCell id="Ek0EtLqmQEhSKvi4kruh-35" style="edgeStyle=orthogonalEdgeStyle;rounded=0;orthogonalLoop=1;jettySize=auto;html=1;exitX=0.5;exitY=1;exitDx=0;exitDy=0;entryX=1;entryY=0.5;entryDx=0;entryDy=0;entryPerimeter=0;" parent="Pxy_f4rOBOek3tE0ao7x-1" source="Pxy_f4rOBOek3tE0ao7x-3" target="Ek0EtLqmQEhSKvi4kruh-38" edge="1">
                    <mxGeometry relative="1" as="geometry"/>
                </mxCell>
                <mxCell id="Pxy_f4rOBOek3tE0ao7x-3" value="Set hands to 00:00:00" style="rounded=1;whiteSpace=wrap;html=1;absoluteArcSize=1;arcSize=14;strokeWidth=2;" parent="Pxy_f4rOBOek3tE0ao7x-1" vertex="1">
                    <mxGeometry x="600" y="190" width="100" height="100" as="geometry"/>
                </mxCell>
                <mxCell id="Ek0EtLqmQEhSKvi4kruh-2" value="No" style="edgeStyle=orthogonalEdgeStyle;rounded=0;orthogonalLoop=1;jettySize=auto;html=1;" parent="Pxy_f4rOBOek3tE0ao7x-1" source="Ek0EtLqmQEhSKvi4kruh-0" target="Pxy_f4rOBOek3tE0ao7x-3" edge="1">
                    <mxGeometry relative="1" as="geometry"/>
                </mxCell>
                <mxCell id="Ek0EtLqmQEhSKvi4kruh-4" value="Yes" style="edgeStyle=orthogonalEdgeStyle;rounded=0;orthogonalLoop=1;jettySize=auto;html=1;entryX=0.5;entryY=0;entryDx=0;entryDy=0;" parent="Pxy_f4rOBOek3tE0ao7x-1" source="Ek0EtLqmQEhSKvi4kruh-0" target="Ek0EtLqmQEhSKvi4kruh-29" edge="1">
                    <mxGeometry relative="1" as="geometry">
                        <mxPoint x="300" y="160" as="targetPoint"/>
                    </mxGeometry>
                </mxCell>
                <mxCell id="Ek0EtLqmQEhSKvi4kruh-0" value="Hand position known?" style="strokeWidth=2;html=1;shape=mxgraph.flowchart.decision;whiteSpace=wrap;" parent="Pxy_f4rOBOek3tE0ao7x-1" vertex="1">
                    <mxGeometry x="430" y="190" width="100" height="100" as="geometry"/>
                </mxCell>
                <mxCell id="Ek0EtLqmQEhSKvi4kruh-16" value="" style="edgeStyle=orthogonalEdgeStyle;rounded=0;orthogonalLoop=1;jettySize=auto;html=1;" parent="Pxy_f4rOBOek3tE0ao7x-1" source="Ek0EtLqmQEhSKvi4kruh-13" target="Ek0EtLqmQEhSKvi4kruh-15" edge="1">
                    <mxGeometry relative="1" as="geometry"/>
                </mxCell>
                <mxCell id="Ek0EtLqmQEhSKvi4kruh-13" value="Step clock" style="rounded=1;whiteSpace=wrap;html=1;absoluteArcSize=1;arcSize=14;strokeWidth=2;" parent="Pxy_f4rOBOek3tE0ao7x-1" vertex="1">
                    <mxGeometry x="90" y="740" width="100" height="100" as="geometry"/>
                </mxCell>
                <mxCell id="Ek0EtLqmQEhSKvi4kruh-17" style="edgeStyle=orthogonalEdgeStyle;rounded=0;orthogonalLoop=1;jettySize=auto;html=1;exitX=1;exitY=0.5;exitDx=0;exitDy=0;entryX=0;entryY=0.5;entryDx=0;entryDy=0;entryPerimeter=0;" parent="Pxy_f4rOBOek3tE0ao7x-1" source="Ek0EtLqmQEhSKvi4kruh-15" target="Ek0EtLqmQEhSKvi4kruh-20" edge="1">
                    <mxGeometry relative="1" as="geometry"/>
                </mxCell>
                <mxCell id="Ek0EtLqmQEhSKvi4kruh-15" value="Update stored hand position" style="rounded=1;whiteSpace=wrap;html=1;absoluteArcSize=1;arcSize=14;strokeWidth=2;" parent="Pxy_f4rOBOek3tE0ao7x-1" vertex="1">
                    <mxGeometry x="90" y="920" width="100" height="100" as="geometry"/>
                </mxCell>
                <mxCell id="Ek0EtLqmQEhSKvi4kruh-18" value="No" style="edgeStyle=orthogonalEdgeStyle;rounded=0;orthogonalLoop=1;jettySize=auto;html=1;exitX=0;exitY=0.5;exitDx=0;exitDy=0;exitPerimeter=0;entryX=1;entryY=0.5;entryDx=0;entryDy=0;" parent="Pxy_f4rOBOek3tE0ao7x-1" source="Ek0EtLqmQEhSKvi4kruh-14" target="Ek0EtLqmQEhSKvi4kruh-13" edge="1">
                    <mxGeometry relative="1" as="geometry"/>
                </mxCell>
                <mxCell id="Ek0EtLqmQEhSKvi4kruh-21" value="Yes" style="edgeStyle=orthogonalEdgeStyle;rounded=0;orthogonalLoop=1;jettySize=auto;html=1;" parent="Pxy_f4rOBOek3tE0ao7x-1" source="Ek0EtLqmQEhSKvi4kruh-14" target="Ek0EtLqmQEhSKvi4kruh-20" edge="1">
                    <mxGeometry relative="1" as="geometry"/>
                </mxCell>
                <mxCell id="Ek0EtLqmQEhSKvi4kruh-14" value="Stored hand position matches RTC time?" style="strokeWidth=2;html=1;shape=mxgraph.flowchart.decision;whiteSpace=wrap;" parent="Pxy_f4rOBOek3tE0ao7x-1" vertex="1">
                    <mxGeometry x="250" y="740" width="100" height="100" as="geometry"/>
                </mxCell>
                <mxCell id="Ek0EtLqmQEhSKvi4kruh-23" value="No" style="edgeStyle=orthogonalEdgeStyle;rounded=0;orthogonalLoop=1;jettySize=auto;html=1;" parent="Pxy_f4rOBOek3tE0ao7x-1" source="Ek0EtLqmQEhSKvi4kruh-20" target="Ek0EtLqmQEhSKvi4kruh-22" edge="1">
                    <mxGeometry relative="1" as="geometry"/>
                </mxCell>
                <mxCell id="Ek0EtLqmQEhSKvi4kruh-20" value="Menu button pushed?" style="strokeWidth=2;html=1;shape=mxgraph.flowchart.decision;whiteSpace=wrap;" parent="Pxy_f4rOBOek3tE0ao7x-1" vertex="1">
                    <mxGeometry x="250" y="920" width="100" height="100" as="geometry"/>
                </mxCell>
                <mxCell id="Ek0EtLqmQEhSKvi4kruh-26" value="No" style="edgeStyle=orthogonalEdgeStyle;rounded=0;orthogonalLoop=1;jettySize=auto;html=1;" parent="Pxy_f4rOBOek3tE0ao7x-1" source="Ek0EtLqmQEhSKvi4kruh-22" target="Ek0EtLqmQEhSKvi4kruh-25" edge="1">
                    <mxGeometry relative="1" as="geometry"/>
                </mxCell>
                <mxCell id="Ek0EtLqmQEhSKvi4kruh-22" value="WPS button pushed?" style="strokeWidth=2;html=1;shape=mxgraph.flowchart.decision;whiteSpace=wrap;" parent="Pxy_f4rOBOek3tE0ao7x-1" vertex="1">
                    <mxGeometry x="430" y="920" width="100" height="100" as="geometry"/>
                </mxCell>
                <mxCell id="Ek0EtLqmQEhSKvi4kruh-27" value="No" style="edgeStyle=orthogonalEdgeStyle;rounded=0;orthogonalLoop=1;jettySize=auto;html=1;" parent="Pxy_f4rOBOek3tE0ao7x-1" source="Ek0EtLqmQEhSKvi4kruh-25" target="Ek0EtLqmQEhSKvi4kruh-14" edge="1">
                    <mxGeometry relative="1" as="geometry"/>
                </mxCell>
                <mxCell id="Ek0EtLqmQEhSKvi4kruh-31" value="Yes" style="edgeStyle=orthogonalEdgeStyle;rounded=0;orthogonalLoop=1;jettySize=auto;html=1;" parent="Pxy_f4rOBOek3tE0ao7x-1" source="Ek0EtLqmQEhSKvi4kruh-38" target="Ek0EtLqmQEhSKvi4kruh-30" edge="1">
                    <mxGeometry relative="1" as="geometry"/>
                </mxCell>
                <mxCell id="Ek0EtLqmQEhSKvi4kruh-25" value="Time equals 03:00:00?" style="strokeWidth=2;html=1;shape=mxgraph.flowchart.decision;whiteSpace=wrap;" parent="Pxy_f4rOBOek3tE0ao7x-1" vertex="1">
                    <mxGeometry x="430" y="740" width="100" height="100" as="geometry"/>
                </mxCell>
                <mxCell id="Ek0EtLqmQEhSKvi4kruh-30" value="Time equals 03:00:00?" style="strokeWidth=2;html=1;shape=mxgraph.flowchart.decision;whiteSpace=wrap;" parent="Pxy_f4rOBOek3tE0ao7x-1" vertex="1">
                    <mxGeometry x="430" y="380" width="100" height="100" as="geometry"/>
                </mxCell>
                <mxCell id="Ek0EtLqmQEhSKvi4kruh-32" style="edgeStyle=orthogonalEdgeStyle;rounded=0;orthogonalLoop=1;jettySize=auto;html=1;entryX=0.5;entryY=0;entryDx=0;entryDy=0;entryPerimeter=0;" parent="Pxy_f4rOBOek3tE0ao7x-1" source="Ek0EtLqmQEhSKvi4kruh-33" target="Ek0EtLqmQEhSKvi4kruh-14" edge="1">
                    <mxGeometry relative="1" as="geometry"/>
                </mxCell>
                <mxCell id="Ek0EtLqmQEhSKvi4kruh-34" value="" style="edgeStyle=orthogonalEdgeStyle;rounded=0;orthogonalLoop=1;jettySize=auto;html=1;" parent="Pxy_f4rOBOek3tE0ao7x-1" source="Ek0EtLqmQEhSKvi4kruh-29" target="Ek0EtLqmQEhSKvi4kruh-33" edge="1">
                    <mxGeometry relative="1" as="geometry"/>
                </mxCell>
                <mxCell id="Ek0EtLqmQEhSKvi4kruh-29" value="Get NTP time" style="rounded=1;whiteSpace=wrap;html=1;absoluteArcSize=1;arcSize=14;strokeWidth=2;" parent="Pxy_f4rOBOek3tE0ao7x-1" vertex="1">
                    <mxGeometry x="430" y="380" width="100" height="100" as="geometry"/>
                </mxCell>
                <mxCell id="Ek0EtLqmQEhSKvi4kruh-33" value="Set RTC to &lt;br&gt;match NTP" style="rounded=1;whiteSpace=wrap;html=1;absoluteArcSize=1;arcSize=14;strokeWidth=2;" parent="Pxy_f4rOBOek3tE0ao7x-1" vertex="1">
                    <mxGeometry x="250" y="380" width="100" height="100" as="geometry"/>
                </mxCell>
                <mxCell id="Ek0EtLqmQEhSKvi4kruh-40" value="No" style="edgeStyle=orthogonalEdgeStyle;rounded=0;orthogonalLoop=1;jettySize=auto;html=1;exitX=0;exitY=0.5;exitDx=0;exitDy=0;exitPerimeter=0;" parent="Pxy_f4rOBOek3tE0ao7x-1" source="Ek0EtLqmQEhSKvi4kruh-38" edge="1">
                    <mxGeometry x="-0.8462" relative="1" as="geometry">
                        <mxPoint x="299.9999999999998" y="740" as="targetPoint"/>
                        <mxPoint as="offset"/>
                    </mxGeometry>
                </mxCell>
                <mxCell id="Ek0EtLqmQEhSKvi4kruh-38" value="WiFi &lt;br&gt;parameters known?" style="strokeWidth=2;html=1;shape=mxgraph.flowchart.decision;whiteSpace=wrap;" parent="Pxy_f4rOBOek3tE0ao7x-1" vertex="1">
                    <mxGeometry x="430" y="560" width="100" height="100" as="geometry"/>
                </mxCell>
                <mxCell id="Ek0EtLqmQEhSKvi4kruh-39" value="" style="edgeStyle=orthogonalEdgeStyle;rounded=0;orthogonalLoop=1;jettySize=auto;html=1;" parent="Pxy_f4rOBOek3tE0ao7x-1" source="Ek0EtLqmQEhSKvi4kruh-25" target="Ek0EtLqmQEhSKvi4kruh-38" edge="1">
                    <mxGeometry relative="1" as="geometry">
                        <mxPoint x="479.9999999999998" y="740" as="sourcePoint"/>
                        <mxPoint x="479.9999999999998" y="480" as="targetPoint"/>
                    </mxGeometry>
                </mxCell>
            </root>
        </mxGraphModel>
    </diagram>
    <diagram id="uzQz-8R5zpaW9VjArhRd" name="Non-volatile storage">
        <mxGraphModel dx="407" dy="472" grid="1" gridSize="10" guides="1" tooltips="1" connect="1" arrows="1" fold="1" page="1" pageScale="1" pageWidth="827" pageHeight="1169" math="0" shadow="0">
            <root>
                <mxCell id="KscK6bOsqN4v3Aqx479M-0"/>
                <mxCell id="KscK6bOsqN4v3Aqx479M-1" parent="KscK6bOsqN4v3Aqx479M-0"/>
                <mxCell id="KscK6bOsqN4v3Aqx479M-2" value="Hand position" style="swimlane;fontStyle=1;align=center;verticalAlign=top;childLayout=stackLayout;horizontal=1;startSize=26;horizontalStack=0;resizeParent=1;resizeParentMax=0;resizeLast=0;collapsible=1;marginBottom=0;strokeWidth=2;" parent="KscK6bOsqN4v3Aqx479M-1" vertex="1">
                    <mxGeometry x="200" y="110" width="160" height="140" as="geometry"/>
                </mxCell>
                <mxCell id="KscK6bOsqN4v3Aqx479M-3" value="Hour&#10;Minute&#10;Second" style="text;strokeColor=none;fillColor=none;align=left;verticalAlign=top;spacingLeft=4;spacingRight=4;overflow=hidden;rotatable=0;points=[[0,0.5],[1,0.5]];portConstraint=eastwest;" parent="KscK6bOsqN4v3Aqx479M-2" vertex="1">
                    <mxGeometry y="26" width="160" height="54" as="geometry"/>
                </mxCell>
                <mxCell id="KscK6bOsqN4v3Aqx479M-4" value="" style="line;strokeWidth=1;fillColor=none;align=left;verticalAlign=middle;spacingTop=-1;spacingLeft=3;spacingRight=3;rotatable=0;labelPosition=right;points=[];portConstraint=eastwest;" parent="KscK6bOsqN4v3Aqx479M-2" vertex="1">
                    <mxGeometry y="80" width="160" height="8" as="geometry"/>
                </mxCell>
                <mxCell id="KscK6bOsqN4v3Aqx479M-5" value="Maybe store as a simple count in the range 0...43199" style="text;strokeColor=none;fillColor=none;align=left;verticalAlign=top;spacingLeft=4;spacingRight=4;overflow=hidden;rotatable=0;points=[[0,0.5],[1,0.5]];portConstraint=eastwest;whiteSpace=wrap;" parent="KscK6bOsqN4v3Aqx479M-2" vertex="1">
                    <mxGeometry y="88" width="160" height="52" as="geometry"/>
                </mxCell>
                <mxCell id="KscK6bOsqN4v3Aqx479M-11" value="WiFi parameters" style="swimlane;fontStyle=1;align=center;verticalAlign=top;childLayout=stackLayout;horizontal=1;startSize=26;horizontalStack=0;resizeParent=1;resizeParentMax=0;resizeLast=0;collapsible=1;marginBottom=0;strokeWidth=2;" parent="KscK6bOsqN4v3Aqx479M-1" vertex="1">
                    <mxGeometry x="400" y="110" width="160" height="140" as="geometry"/>
                </mxCell>
                <mxCell id="KscK6bOsqN4v3Aqx479M-12" value="SSID&#10;Passphrase" style="text;strokeColor=none;fillColor=none;align=left;verticalAlign=top;spacingLeft=4;spacingRight=4;overflow=hidden;rotatable=0;points=[[0,0.5],[1,0.5]];portConstraint=eastwest;" parent="KscK6bOsqN4v3Aqx479M-11" vertex="1">
                    <mxGeometry y="26" width="160" height="54" as="geometry"/>
                </mxCell>
                <mxCell id="KscK6bOsqN4v3Aqx479M-13" value="" style="line;strokeWidth=1;fillColor=none;align=left;verticalAlign=middle;spacingTop=-1;spacingLeft=3;spacingRight=3;rotatable=0;labelPosition=right;points=[];portConstraint=eastwest;" parent="KscK6bOsqN4v3Aqx479M-11" vertex="1">
                    <mxGeometry y="80" width="160" height="8" as="geometry"/>
                </mxCell>
                <mxCell id="KscK6bOsqN4v3Aqx479M-14" value="WPA2 only?&#10;" style="text;strokeColor=none;fillColor=none;align=left;verticalAlign=top;spacingLeft=4;spacingRight=4;overflow=hidden;rotatable=0;points=[[0,0.5],[1,0.5]];portConstraint=eastwest;whiteSpace=wrap;" parent="KscK6bOsqN4v3Aqx479M-11" vertex="1">
                    <mxGeometry y="88" width="160" height="52" as="geometry"/>
                </mxCell>
            </root>
        </mxGraphModel>
    </diagram>
    <diagram id="mU1wbpPfIeGWSGSHpWXD" name="Hand Home">
        <mxGraphModel dx="407" dy="472" grid="1" gridSize="10" guides="1" tooltips="1" connect="1" arrows="1" fold="1" page="1" pageScale="1" pageWidth="827" pageHeight="1169" math="0" shadow="0">
            <root>
                <mxCell id="K-nRSxGmpGGp6sz017pf-0"/>
                <mxCell id="K-nRSxGmpGGp6sz017pf-1" parent="K-nRSxGmpGGp6sz017pf-0"/>
                <mxCell id="K-nRSxGmpGGp6sz017pf-4" value="" style="edgeStyle=orthogonalEdgeStyle;rounded=0;orthogonalLoop=1;jettySize=auto;html=1;" parent="K-nRSxGmpGGp6sz017pf-1" source="K-nRSxGmpGGp6sz017pf-2" target="K-nRSxGmpGGp6sz017pf-3" edge="1">
                    <mxGeometry relative="1" as="geometry"/>
                </mxCell>
                <mxCell id="K-nRSxGmpGGp6sz017pf-2" value="Start" style="strokeWidth=2;html=1;shape=mxgraph.flowchart.terminator;whiteSpace=wrap;" parent="K-nRSxGmpGGp6sz017pf-1" vertex="1">
                    <mxGeometry x="200" y="40" width="100" height="60" as="geometry"/>
                </mxCell>
                <mxCell id="K-nRSxGmpGGp6sz017pf-6" value="Yes" style="edgeStyle=orthogonalEdgeStyle;rounded=0;orthogonalLoop=1;jettySize=auto;html=1;" parent="K-nRSxGmpGGp6sz017pf-1" source="K-nRSxGmpGGp6sz017pf-3" target="K-nRSxGmpGGp6sz017pf-7" edge="1">
                    <mxGeometry relative="1" as="geometry">
                        <mxPoint x="380" y="230" as="targetPoint"/>
                    </mxGeometry>
                </mxCell>
                <mxCell id="K-nRSxGmpGGp6sz017pf-14" value="No" style="edgeStyle=orthogonalEdgeStyle;rounded=0;orthogonalLoop=1;jettySize=auto;html=1;entryX=1;entryY=0.5;entryDx=0;entryDy=0;" parent="K-nRSxGmpGGp6sz017pf-1" source="K-nRSxGmpGGp6sz017pf-3" target="K-nRSxGmpGGp6sz017pf-13" edge="1">
                    <mxGeometry relative="1" as="geometry"/>
                </mxCell>
                <mxCell id="K-nRSxGmpGGp6sz017pf-3" value="Hand detected?" style="strokeWidth=2;html=1;shape=mxgraph.flowchart.decision;whiteSpace=wrap;" parent="K-nRSxGmpGGp6sz017pf-1" vertex="1">
                    <mxGeometry x="200" y="180" width="100" height="100" as="geometry"/>
                </mxCell>
                <mxCell id="K-nRSxGmpGGp6sz017pf-9" value="" style="edgeStyle=orthogonalEdgeStyle;rounded=0;orthogonalLoop=1;jettySize=auto;html=1;" parent="K-nRSxGmpGGp6sz017pf-1" source="K-nRSxGmpGGp6sz017pf-7" target="K-nRSxGmpGGp6sz017pf-10" edge="1">
                    <mxGeometry relative="1" as="geometry">
                        <mxPoint x="560" y="230" as="targetPoint"/>
                    </mxGeometry>
                </mxCell>
                <mxCell id="K-nRSxGmpGGp6sz017pf-7" value="Step 5" style="rounded=1;whiteSpace=wrap;html=1;absoluteArcSize=1;arcSize=14;strokeWidth=2;" parent="K-nRSxGmpGGp6sz017pf-1" vertex="1">
                    <mxGeometry x="380" y="180" width="100" height="100" as="geometry"/>
                </mxCell>
                <mxCell id="K-nRSxGmpGGp6sz017pf-12" value="No" style="edgeStyle=orthogonalEdgeStyle;rounded=0;orthogonalLoop=1;jettySize=auto;html=1;" parent="K-nRSxGmpGGp6sz017pf-1" source="K-nRSxGmpGGp6sz017pf-10" target="K-nRSxGmpGGp6sz017pf-11" edge="1">
                    <mxGeometry relative="1" as="geometry"/>
                </mxCell>
                <mxCell id="K-nRSxGmpGGp6sz017pf-17" style="edgeStyle=orthogonalEdgeStyle;rounded=0;orthogonalLoop=1;jettySize=auto;html=1;exitX=0;exitY=0.5;exitDx=0;exitDy=0;exitPerimeter=0;entryX=1;entryY=0.5;entryDx=0;entryDy=0;" parent="K-nRSxGmpGGp6sz017pf-1" source="K-nRSxGmpGGp6sz017pf-10" target="K-nRSxGmpGGp6sz017pf-13" edge="1">
                    <mxGeometry relative="1" as="geometry"/>
                </mxCell>
                <mxCell id="K-nRSxGmpGGp6sz017pf-10" value="Hand detected?" style="strokeWidth=2;html=1;shape=mxgraph.flowchart.decision;whiteSpace=wrap;" parent="K-nRSxGmpGGp6sz017pf-1" vertex="1">
                    <mxGeometry x="380" y="360" width="100" height="100" as="geometry"/>
                </mxCell>
                <mxCell id="K-nRSxGmpGGp6sz017pf-11" value="Second hand &lt;br&gt;at 1" style="rounded=1;whiteSpace=wrap;html=1;absoluteArcSize=1;arcSize=14;strokeWidth=2;" parent="K-nRSxGmpGGp6sz017pf-1" vertex="1">
                    <mxGeometry x="560" y="360" width="100" height="100" as="geometry"/>
                </mxCell>
                <mxCell id="K-nRSxGmpGGp6sz017pf-15" value="" style="edgeStyle=orthogonalEdgeStyle;rounded=0;orthogonalLoop=1;jettySize=auto;html=1;exitX=0.5;exitY=0;exitDx=0;exitDy=0;entryX=0;entryY=0.5;entryDx=0;entryDy=0;entryPerimeter=0;" parent="K-nRSxGmpGGp6sz017pf-1" source="K-nRSxGmpGGp6sz017pf-13" target="K-nRSxGmpGGp6sz017pf-3" edge="1">
                    <mxGeometry relative="1" as="geometry"/>
                </mxCell>
                <mxCell id="K-nRSxGmpGGp6sz017pf-13" value="Step 1" style="rounded=1;whiteSpace=wrap;html=1;absoluteArcSize=1;arcSize=14;strokeWidth=2;" parent="K-nRSxGmpGGp6sz017pf-1" vertex="1">
                    <mxGeometry x="100" y="360" width="100" height="100" as="geometry"/>
                </mxCell>
            </root>
        </mxGraphModel>
    </diagram>
</mxfile>